<?xml version="1.0" encoding="iso-8859-1"?>
<!-- Generator: Adobe Illustrator 19.0.0, SVG Export Plug-In . SVG Version: 6.00 Build 0)  -->
<svg version="1.1" id="Capa_1" xmlns="http://www.w3.org/2000/svg" xmlns:xlink="http://www.w3.org/1999/xlink" x="0px" y="0px"
	 viewBox="0 0 512 512" style="enable-background:new 0 0 512 512;" xml:space="preserve">
<path style="fill:#F28400;" d="M25.182,488.608c-6.957,0-13.255-2.814-17.806-7.376C2.814,476.671,0,470.373,0,463.426V198.91
	V88.287V62.195c0-21.43,17.373-38.803,38.803-38.803h148.035c11.184,0,21.823,4.823,29.188,13.255l33.603,38.384
	c7.365,8.432,18.005,13.255,29.209,13.255h149.646c21.43,0,38.803,17.373,38.803,38.803v269.91
	c0,50.594-41.014,91.609-91.609,91.609H25.182"/>
<path style="fill:#D87203;" d="M431.125,217.208l-49.443,220.65c-3.567,15.902-17.68,27.211-33.99,27.211l-47.758,17.513
	c-24.031,0.167-49.045,0.314-73.892,0.429c-109.964,0.502-216.476,0.418-218.662-1.779c-4.561-4.561-7.376-10.859-7.376-17.806
	v-153.15l20.442-91.206c5.723-25.548,28.393-43.699,54.569-43.699h322.611C419.617,175.371,435.936,195.751,431.125,217.208z"/>
<path style="fill:#F28400;" d="M511.154,240.747l-49.443,220.65c-3.568,15.902-17.68,27.211-33.99,27.211H25.182
	c11.79,0,22.001-8.181,24.575-19.679l23.162-103.373l27.556-122.947c5.723-25.548,28.393-43.699,54.569-43.699h322.611
	C499.646,198.91,515.966,219.291,511.154,240.747z"/>
<g>
</g>
<g>
</g>
<g>
</g>
<g>
</g>
<g>
</g>
<g>
</g>
<g>
</g>
<g>
</g>
<g>
</g>
<g>
</g>
<g>
</g>
<g>
</g>
<g>
</g>
<g>
</g>
<g>
</g>
</svg>
